<svg width="11" height="22" viewBox="0 0 11 22" fill="none" xmlns="http://www.w3.org/2000/svg">
<path d="M10.5248 19.8422L1.99881 11.0957L10.5248 2.34915C10.6774 2.19288 10.7629 1.9831 10.7629 1.76465C10.7629 1.54621 10.6774 1.33642 10.5248 1.18015C10.4507 1.10449 10.3622 1.04437 10.2645 1.00334C10.1669 0.9623 10.062 0.941162 9.95606 0.941162C9.85012 0.941162 9.74526 0.9623 9.6476 1.00334C9.54993 1.04437 9.46144 1.10449 9.38731 1.18015L0.315306 10.4849C0.156032 10.6483 0.0668906 10.8675 0.0668906 11.0957C0.0668906 11.3238 0.156032 11.543 0.315306 11.7064L9.38555 21.0112C9.45975 21.0874 9.54846 21.1479 9.64644 21.1893C9.74442 21.2306 9.8497 21.2519 9.95606 21.2519C10.0624 21.2519 10.1677 21.2306 10.2657 21.1893C10.3637 21.1479 10.4524 21.0874 10.5266 21.0112C10.6792 20.8549 10.7646 20.6451 10.7646 20.4267C10.7646 20.2082 10.6792 19.9984 10.5266 19.8422L10.5248 19.8422Z" fill="#80233A"/>
</svg>
