<svg width="11" height="22" viewBox="0 0 11 22" fill="none" xmlns="http://www.w3.org/2000/svg">
<path d="M0.475195 2.15785L9.00119 10.9043L0.475194 19.6508C0.322555 19.8071 0.237101 20.0169 0.237101 20.2353C0.237101 20.4538 0.322555 20.6636 0.475194 20.8198C0.549332 20.8955 0.637821 20.9556 0.735482 20.9967C0.833143 21.0377 0.938011 21.0588 1.04394 21.0588C1.14988 21.0588 1.25474 21.0377 1.3524 20.9967C1.45007 20.9556 1.53856 20.8955 1.61269 20.8198L10.6847 11.5151C10.844 11.3517 10.9331 11.1325 10.9331 10.9043C10.9331 10.6762 10.844 10.457 10.6847 10.2936L1.61444 0.988846C1.54025 0.912645 1.45154 0.852079 1.35356 0.810724C1.25557 0.769369 1.1503 0.748064 1.04394 0.748064C0.93759 0.748064 0.832313 0.769369 0.734329 0.810724C0.636344 0.852079 0.547637 0.912645 0.473444 0.988846C0.320805 1.14512 0.235352 1.3549 0.235352 1.57335C0.235352 1.79179 0.320805 2.00158 0.473444 2.15785L0.475195 2.15785Z" fill="#80233A"/>
</svg>
