<svg width="13" height="7" viewBox="0 0 13 7" fill="none" xmlns="http://www.w3.org/2000/svg">
<path d="M11.4756 0.145619L6.16523 5.32212L0.854852 0.145619C0.759973 0.052945 0.632606 0.00106242 0.499977 0.00106242C0.367348 0.00106242 0.239981 0.052945 0.145102 0.145619C0.0991616 0.190631 0.0626648 0.244357 0.0377492 0.303651C0.0128336 0.362945 0 0.426615 0 0.490931C0 0.555247 0.0128336 0.618917 0.0377492 0.678211C0.0626648 0.737505 0.0991616 0.791231 0.145102 0.836243L5.79441 6.34424C5.89362 6.44095 6.02669 6.49507 6.16523 6.49507C6.30377 6.49507 6.43683 6.44095 6.53604 6.34424L12.1854 0.837306C12.2316 0.792261 12.2684 0.738402 12.2935 0.678912C12.3186 0.619421 12.3315 0.555503 12.3315 0.490931C12.3315 0.426359 12.3186 0.362441 12.2935 0.30295C12.2684 0.243459 12.2316 0.189602 12.1854 0.144556C12.0905 0.0518821 11.9631 0 11.8305 0C11.6978 0 11.5705 0.0518821 11.4756 0.144556V0.145619Z" fill="black"/>
</svg>
