<svg width="41" height="41" viewBox="0 0 41 41" fill="none" xmlns="http://www.w3.org/2000/svg">
<path d="M34.5495 12.4521H33.5873C33.6647 12.3192 33.7405 12.1863 33.8092 12.0546C34.0146 11.6799 34.2236 11.2784 34.3491 10.911C35.5891 7.79361 34.4854 4.15292 31.7271 2.25479C29.2146 0.520408 25.9604 0.520408 23.4355 2.2551C22.4208 2.95733 21.6332 3.86739 21.0946 4.95757C20.8573 5.43237 20.6646 5.96092 20.4992 6.56584C20.3337 5.96091 20.141 5.43237 19.9053 4.96063C19.3657 3.8677 18.5778 2.95769 17.5631 2.2551C15.044 0.514587 11.7906 0.515137 9.27229 2.25387C6.5131 4.15247 5.4094 7.79347 6.64502 10.9007C6.77577 11.2444 6.95777 11.633 7.18305 12.0433C7.25426 12.1796 7.33221 12.3162 7.4114 12.4515L6.45047 12.4518C3.28121 12.4518 0.703125 15.0297 0.703125 18.1992V19.9588C0.703125 21.6717 1.79087 23.1311 3.30981 23.6949L5.15286 35.6763C5.58715 38.5002 7.97656 40.5498 10.8333 40.5498H30.1658C33.0223 40.5498 35.4114 38.5002 35.8463 35.6763L37.69 23.6949C39.2089 23.1314 40.2961 21.6714 40.2961 19.9588V18.1992C40.2967 15.0299 37.7182 12.4521 34.5493 12.4521L34.5495 12.4521ZM22.239 5.52553C22.6815 4.62966 23.3288 3.88261 24.1609 3.30621C26.2448 1.8744 28.9292 1.87471 31.0021 3.3059C33.2755 4.87057 34.1836 7.87011 33.1524 10.467C33.0471 10.7724 32.8676 11.1152 32.6834 11.4516C32.5536 11.6992 32.4016 11.9491 32.2473 12.2054L32.1236 12.3941C32.1113 12.4134 32.0972 12.4328 32.0849 12.4518H21.1383V11.8057C21.1383 10.4317 21.2694 9.06988 21.5269 7.75963C21.7101 6.84042 21.936 6.13139 22.2386 5.52552L22.239 5.52553ZM24.3312 22.669H16.6681V13.7292H24.3312V22.669ZM8.87703 12.3958L8.76715 12.2273C8.61185 11.9723 8.45072 11.7077 8.31046 11.44C8.1085 11.0705 7.95106 10.7369 7.8375 10.4376C6.81638 7.86928 7.72486 4.8695 9.99884 3.30483C12.0763 1.86964 14.761 1.86964 16.8373 3.30452C17.6706 3.88184 18.3182 4.62885 18.7623 5.52786C19.0628 6.12881 19.2887 6.83812 19.4728 7.75701C19.7306 9.06907 19.8614 10.4309 19.8614 11.805V12.4511H16.0298L8.91418 12.4508C8.90252 12.4333 8.88871 12.4142 8.87705 12.3958L8.87703 12.3958ZM1.98113 19.9583V18.1987C1.98113 15.7339 3.98627 13.7287 6.45114 13.7287H15.3902V22.6694L4.69114 22.6697C3.19647 22.669 1.98074 21.4534 1.98074 19.9586L1.98113 19.9583ZM6.41578 35.4817L4.64085 23.9458H16.029V39.272H10.8341C8.61232 39.272 6.75387 37.6785 6.41601 35.4815L6.41578 35.4817ZM17.3066 39.2721V23.946H23.6923V39.2721H17.3066ZM36.3601 23.946L34.5852 35.4818C34.247 37.6785 32.3886 39.2723 30.1671 39.2723H24.9703V23.9461L36.3601 23.946ZM39.0199 19.9582C39.0199 21.4528 37.8039 22.6689 36.3092 22.6689L25.6086 22.6692V13.7285H34.55C37.0149 13.7285 39.02 15.7337 39.02 18.1985L39.0199 19.9582Z" fill="#80233A"/>
</svg>
