<svg width="31" height="19" viewBox="0 0 31 19" fill="none" xmlns="http://www.w3.org/2000/svg">
<path fill-rule="evenodd" clip-rule="evenodd" d="M23.497 6.76181C23.2979 6.76206 23.1367 6.92322 23.1367 7.12234V10.6318C23.1367 10.8307 23.2979 10.9921 23.497 10.9921H28.4531C28.5882 10.9921 28.7116 10.9169 28.7734 10.797C28.8353 10.6771 28.825 10.5328 28.7471 10.4229L26.2508 6.91342C26.1831 6.81838 26.0738 6.76182 25.9571 6.76182L23.497 6.76181ZM23.8575 7.4826H25.771L27.7544 10.271H23.8572V7.4826H23.8575Z" fill="#80233A"/>
<mask id="path-2-inside-1_466_790" fill="white">
<path fill-rule="evenodd" clip-rule="evenodd" d="M1.93061 0C0.869919 0 0 0.86992 0 1.93061V14.4413C0 15.502 0.869919 16.3719 1.93061 16.3719H4.45258C4.69368 17.7075 5.865 18.7272 7.27016 18.7272C8.67454 18.7272 9.84716 17.708 10.0885 16.3719H23.2635C23.5048 17.7077 24.6784 18.7272 26.0818 18.7272C27.4852 18.7272 28.6588 17.7077 28.9002 16.3719H29.4752C30.3124 16.3719 30.9967 15.6836 30.9967 14.8501V10.2379H30.997C31.0038 10.1864 30.999 10.1338 30.9834 10.0843C30.9814 10.0767 30.9791 10.0695 30.9764 10.0622H30.9756C30.9756 10.0622 30.9756 10.0619 30.9754 10.0619C30.9593 10.0162 30.9339 9.97442 30.901 9.93872L27.0254 4.56119V4.56094C26.9578 4.46716 26.8491 4.41135 26.7332 4.41135L21.7069 4.40808V1.93187C21.7069 0.871185 20.837 0.00126493 19.7763 0.00126493H1.93062L1.93061 0ZM1.93061 0.720793H19.7763C20.4448 0.720793 20.9861 1.26183 20.9861 1.93061V15.6513H10.1263C10.0172 14.1697 8.77617 12.9959 7.27022 12.9959C5.76447 12.9959 4.52325 14.1697 4.41415 15.6513H1.93067C1.26214 15.6513 0.720856 15.1103 0.720856 14.4415V1.9308C0.720856 1.26201 1.2619 0.720985 1.93067 0.720985L1.93061 0.720793ZM21.7072 5.12761L26.5487 5.13088L30.2764 10.303V14.85C30.2764 15.2902 29.9192 15.651 29.4757 15.651H28.9384C28.8293 14.1694 27.5881 12.9955 26.0823 12.9955C24.5766 12.9955 23.3354 14.1694 23.2263 15.651H21.7072L21.7072 5.12761ZM7.27074 13.7167C8.45764 13.7167 9.41381 14.6724 9.41381 15.8635V15.9038C9.39219 17.0716 8.44561 18.0066 7.27074 18.0066C6.08358 18.0066 5.13147 17.0542 5.12767 15.8706V15.8645C5.12767 14.6733 6.08377 13.7177 7.27074 13.7177V13.7167ZM26.0825 13.7167C27.2694 13.7167 28.2256 14.6724 28.2256 15.8635C28.2256 17.0507 27.2695 18.0066 26.0825 18.0066C24.8956 18.0066 23.9395 17.0505 23.9395 15.8635C23.9395 14.6723 24.8956 13.7167 26.0825 13.7167Z"/>
</mask>
<path fill-rule="evenodd" clip-rule="evenodd" d="M1.93061 0C0.869919 0 0 0.86992 0 1.93061V14.4413C0 15.502 0.869919 16.3719 1.93061 16.3719H4.45258C4.69368 17.7075 5.865 18.7272 7.27016 18.7272C8.67454 18.7272 9.84716 17.708 10.0885 16.3719H23.2635C23.5048 17.7077 24.6784 18.7272 26.0818 18.7272C27.4852 18.7272 28.6588 17.7077 28.9002 16.3719H29.4752C30.3124 16.3719 30.9967 15.6836 30.9967 14.8501V10.2379H30.997C31.0038 10.1864 30.999 10.1338 30.9834 10.0843C30.9814 10.0767 30.9791 10.0695 30.9764 10.0622H30.9756C30.9756 10.0622 30.9756 10.0619 30.9754 10.0619C30.9593 10.0162 30.9339 9.97442 30.901 9.93872L27.0254 4.56119V4.56094C26.9578 4.46716 26.8491 4.41135 26.7332 4.41135L21.7069 4.40808V1.93187C21.7069 0.871185 20.837 0.00126493 19.7763 0.00126493H1.93062L1.93061 0ZM1.93061 0.720793H19.7763C20.4448 0.720793 20.9861 1.26183 20.9861 1.93061V15.6513H10.1263C10.0172 14.1697 8.77617 12.9959 7.27022 12.9959C5.76447 12.9959 4.52325 14.1697 4.41415 15.6513H1.93067C1.26214 15.6513 0.720856 15.1103 0.720856 14.4415V1.9308C0.720856 1.26201 1.2619 0.720985 1.93067 0.720985L1.93061 0.720793ZM21.7072 5.12761L26.5487 5.13088L30.2764 10.303V14.85C30.2764 15.2902 29.9192 15.651 29.4757 15.651H28.9384C28.8293 14.1694 27.5881 12.9955 26.0823 12.9955C24.5766 12.9955 23.3354 14.1694 23.2263 15.651H21.7072L21.7072 5.12761ZM7.27074 13.7167C8.45764 13.7167 9.41381 14.6724 9.41381 15.8635V15.9038C9.39219 17.0716 8.44561 18.0066 7.27074 18.0066C6.08358 18.0066 5.13147 17.0542 5.12767 15.8706V15.8645C5.12767 14.6733 6.08377 13.7177 7.27074 13.7177V13.7167ZM26.0825 13.7167C27.2694 13.7167 28.2256 14.6724 28.2256 15.8635C28.2256 17.0507 27.2695 18.0066 26.0825 18.0066C24.8956 18.0066 23.9395 17.0505 23.9395 15.8635C23.9395 14.6723 24.8956 13.7167 26.0825 13.7167Z" fill="#80233A"/>
<path d="M1.93061 0L101.922 -1.31976L100.619 -100H1.93061V0ZM4.45258 16.3719L102.862 -1.39435L88.0157 -83.6281H4.45258V16.3719ZM10.0885 16.3719V-83.6281H-73.4648L-88.3186 -1.40562L10.0885 16.3719ZM23.2635 16.3719L121.67 -1.40894L106.814 -83.6281H23.2635V16.3719ZM28.9002 16.3719V-83.6281H-54.6503L-69.5063 -1.40894L28.9002 16.3719ZM30.9967 10.2379V-89.7621H-69.0033V10.2379H30.9967ZM30.997 10.2379V110.238H118.69L130.141 23.296L30.997 10.2379ZM30.9834 10.0843L-65.6402 35.85L-65.0691 37.9918L-64.4036 40.1061L30.9834 10.0843ZM30.9764 10.0622L124.475 -25.4074L99.9942 -89.9378H30.9764V10.0622ZM30.9756 10.0622L-69.0244 10.0685L-69.018 110.062H30.9756V10.0622ZM30.9754 10.0619L-63.3619 43.2353L-39.8625 110.062H30.9754V10.0619ZM30.901 9.93872L-50.2256 68.4065L-46.6962 73.3037L-42.6032 77.7409L30.901 9.93872ZM27.0254 4.56119H-72.9746V36.8412L-54.1012 63.0289L27.0254 4.56119ZM27.0254 4.56094H127.025V-27.7376L108.132 -53.934L27.0254 4.56094ZM26.7332 4.41135L26.6682 104.411L26.7007 104.411H26.7332V4.41135ZM21.7069 4.40808H-78.2931V104.343L21.6419 104.408L21.7069 4.40808ZM1.93062 0.00126493L-98.0607 1.32103L-96.7582 100.001H1.93062V0.00126493ZM1.93061 0.720793V-99.2792H-137.26L-92.8406 32.6335L1.93061 0.720793ZM20.9861 15.6513V115.651H120.986V15.6513H20.9861ZM10.1263 15.6513L-89.6036 22.9959L-82.7801 115.651H10.1263V15.6513ZM4.41415 15.6513V115.651H97.3217L104.144 22.9946L4.41415 15.6513ZM1.93067 0.720985V100.721H141.121L96.7019 -31.1918L1.93067 0.720985ZM21.7072 5.12761L21.7747 -94.8724L-78.293 -94.9399L-78.2928 5.12779L21.7072 5.12761ZM26.5487 5.13088L107.674 -53.3391L77.7662 -94.8346L26.6162 -94.8691L26.5487 5.13088ZM30.2764 10.303H130.276V-21.9786L111.401 -48.1671L30.2764 10.303ZM28.9384 15.651L-70.7915 22.9956L-63.9679 115.651H28.9384V15.651ZM23.2263 15.651V115.651H116.134L122.956 22.9943L23.2263 15.651ZM21.7072 15.651L-78.2928 15.6512L-78.2926 115.651H21.7072V15.651ZM7.27074 13.7167V-86.2833H-92.7293V13.7167H7.27074ZM9.41381 15.9038L109.397 17.7549L109.414 16.8294V15.9038H9.41381ZM5.12767 15.8706H-94.8723V16.031L-94.8718 16.1914L5.12767 15.8706ZM7.27074 13.7177V113.718H107.271V13.7177H7.27074ZM1.93061 -100C-54.3586 -100 -100 -54.3585 -100 1.93061H100C100 56.0984 56.0984 100 1.93061 100V-100ZM-100 1.93061V14.4413H100V1.93061H-100ZM-100 14.4413C-100 70.7305 -54.3586 116.372 1.93061 116.372V-83.6281C56.0984 -83.6281 100 -39.7264 100 14.4413H-100ZM1.93061 116.372H4.45258V-83.6281H1.93061V116.372ZM-93.9566 34.1382C-85.311 82.0267 -43.5726 118.727 7.27016 118.727V-81.2728C55.3026 -81.2728 94.6984 -46.6118 102.862 -1.39435L-93.9566 34.1382ZM7.27016 118.727C58.0606 118.727 99.8367 82.0805 108.496 34.1495L-88.3186 -1.40562C-80.1424 -46.6645 -40.7115 -81.2728 7.27016 -81.2728V118.727ZM10.0885 116.372H23.2635V-83.6281H10.0885V116.372ZM-75.1431 34.1528C-66.4808 82.0931 -24.6952 118.727 26.0818 118.727V-81.2728C74.052 -81.2728 113.49 -46.6777 121.67 -1.40894L-75.1431 34.1528ZM26.0818 118.727C76.8588 118.727 118.644 82.0931 127.307 34.1528L-69.5063 -1.40894C-61.3268 -46.6777 -21.8883 -81.2728 26.0818 -81.2728V118.727ZM28.9002 116.372H29.4752V-83.6281H28.9002V116.372ZM29.4752 116.372C85.7221 116.372 130.997 70.7306 130.997 14.8501H-69.0033C-69.0033 -39.3634 -25.0974 -83.6281 29.4752 -83.6281V116.372ZM130.997 14.8501V10.2379H-69.0033V14.8501H130.997ZM30.9967 110.238H30.997V-89.7621H30.9967V110.238ZM130.141 23.296C132.084 8.53864 130.691 -6.21032 126.37 -19.9375L-64.4036 40.1061C-68.6929 26.478 -70.0769 11.8341 -68.1468 -2.82023L130.141 23.296ZM127.607 -15.6815C126.921 -18.2534 125.922 -21.5919 124.475 -25.4074L-62.5218 45.5317C-63.9637 41.7308 -64.9584 38.4069 -65.6402 35.85L127.607 -15.6815ZM30.9764 -89.9378H30.9756V110.062H30.9764V-89.9378ZM30.9756 10.0622C130.976 10.0559 130.976 10.0074 130.976 9.95886C130.976 9.94249 130.975 9.89377 130.975 9.86124C130.975 9.79616 130.975 9.73081 130.975 9.6652C130.974 9.53396 130.974 9.40169 130.972 9.26839C130.97 9.00181 130.967 8.73089 130.963 8.45572C130.954 7.90571 130.94 7.33692 130.921 6.75035C130.882 5.5802 130.82 4.3224 130.725 2.98655C130.538 0.348685 130.211 -2.7728 129.635 -6.25882C128.56 -12.7539 126.225 -22.9575 120.556 -34.3836C114.701 -46.1839 104.31 -61.1411 86.7453 -72.9425C68.5161 -85.1905 48.6356 -89.9381 30.9754 -89.9381V110.062C13.3152 110.062 -6.56515 105.314 -24.7943 93.0664C-42.3586 81.2651 -52.7497 66.3079 -58.6045 54.5077C-64.2736 43.0816 -66.6091 32.8781 -67.6835 26.3831C-68.2602 22.8971 -68.5866 19.7756 -68.7737 17.1378C-68.8685 15.8019 -68.9307 14.5441 -68.9695 13.374C-68.989 12.7874 -69.0026 12.2186 -69.0115 11.6686C-69.0159 11.3934 -69.0191 11.1225 -69.0212 10.8559C-69.0223 10.7226 -69.0231 10.5904 -69.0236 10.4591C-69.0238 10.3935 -69.024 10.3282 -69.0242 10.2631C-69.0242 10.2306 -69.0243 10.1818 -69.0243 10.1657C-69.0244 10.1169 -69.0244 10.0684 30.9756 10.0622ZM125.313 -23.1115C120.665 -36.328 113.426 -48.0836 104.405 -57.8635L-42.6032 77.7409C-51.5586 68.0324 -58.7466 56.3603 -63.3619 43.2353L125.313 -23.1115ZM112.028 -48.529L108.152 -53.9066L-54.1012 63.0289L-50.2256 68.4065L112.028 -48.529ZM127.025 4.56119V4.56094H-72.9746V4.56119H127.025ZM108.132 -53.934C89.3248 -80.0119 59.0801 -95.5887 26.7332 -95.5887V104.411C-5.38182 104.411 -35.4093 88.9462 -54.0816 63.0559L108.132 -53.934ZM26.7983 -95.5886L21.772 -95.5919L21.6419 104.408L26.6682 104.411L26.7983 -95.5886ZM121.707 4.40808V1.93187H-78.2931V4.40808H121.707ZM121.707 1.93187C121.707 -54.3573 76.0655 -99.9987 19.7763 -99.9987V100.001C-34.3915 100.001 -78.2931 56.0996 -78.2931 1.93187H121.707ZM19.7763 -99.9987H1.93062V100.001H19.7763V-99.9987ZM101.922 -1.3185L101.922 -1.31976L-98.0607 1.31976L-98.0607 1.32103L101.922 -1.3185ZM1.93061 100.721H19.7763V-99.2792H1.93061V100.721ZM19.7763 100.721C-34.7705 100.721 -79.0139 56.5035 -79.0139 1.93061H120.986C120.986 -53.9798 75.6602 -99.2792 19.7763 -99.2792V100.721ZM-79.0139 1.93061V15.6513H120.986V1.93061H-79.0139ZM20.9861 -84.3487H10.1263V115.651H20.9861V-84.3487ZM109.856 8.30677C105.94 -44.8698 61.6975 -87.0041 7.27022 -87.0041V112.996C-44.1452 112.996 -85.9057 73.2092 -89.6036 22.9959L109.856 8.30677ZM7.27022 -87.0041C-47.1515 -87.0041 -91.3999 -44.875 -95.3159 8.30806L104.144 22.9946C100.446 73.2144 58.6804 112.996 7.27022 112.996V-87.0041ZM4.41415 -84.3487H1.93067V115.651H4.41415V-84.3487ZM1.93067 -84.3487C56.4774 -84.3487 100.721 -40.1314 100.721 14.4415H-99.2791C-99.2791 70.352 -53.9531 115.651 1.93067 115.651V-84.3487ZM100.721 14.4415V1.9308H-99.2791V14.4415H100.721ZM100.721 1.9308C100.721 56.4912 56.4896 100.721 1.93067 100.721V-99.279C-53.9658 -99.279 -99.2791 -53.9672 -99.2791 1.9308H100.721ZM96.7019 -31.1918L96.7018 -31.1919L-92.8406 32.6335L-92.8405 32.6337L96.7019 -31.1918ZM21.6397 105.128L26.4812 105.131L26.6162 -94.8691L21.7747 -94.8724L21.6397 105.128ZM-54.5763 63.6009L-50.8485 68.773L111.401 -48.1671L107.674 -53.3391L-54.5763 63.6009ZM-69.7236 10.303V14.85H130.276V10.303H-69.7236ZM-69.7236 14.85C-69.7236 -39.6321 -25.6149 -84.349 29.4757 -84.349V115.651C85.4532 115.651 130.276 70.2126 130.276 14.85H-69.7236ZM29.4757 -84.349H28.9384V115.651H29.4757V-84.349ZM128.668 8.30643C124.752 -44.8745 80.5051 -87.0044 26.0823 -87.0044V112.996C-25.3289 112.996 -67.0932 73.2132 -70.7915 22.9956L128.668 8.30643ZM26.0823 -87.0044C-28.3394 -87.0044 -72.5878 -44.8753 -76.5037 8.30772L122.956 22.9943C119.259 73.2141 77.4925 112.996 26.0823 112.996V-87.0044ZM23.2263 -84.349H21.7072V115.651H23.2263V-84.349ZM121.707 15.6508L121.707 5.12742L-78.2928 5.12779L-78.2928 15.6512L121.707 15.6508ZM7.27074 113.717C-46.8687 113.717 -90.5862 69.803 -90.5862 15.8635H109.414C109.414 -40.4582 63.784 -86.2833 7.27074 -86.2833V113.717ZM-90.5862 15.8635V15.9038H109.414V15.8635H-90.5862ZM-90.5691 14.0527C-89.5845 -39.1275 -46.2108 -81.9934 7.27074 -81.9934V118.007C63.102 118.007 108.369 73.2708 109.397 17.7549L-90.5691 14.0527ZM7.27074 -81.9934C61.2832 -81.9934 104.954 -38.2731 105.127 15.5498L-94.8718 16.1914C-94.6916 72.3816 -49.116 118.007 7.27074 118.007V-81.9934ZM105.128 15.8706V15.8645H-94.8723V15.8706H105.128ZM105.128 15.8645C105.128 69.804 61.41 113.718 7.27074 113.718V-86.2823C-49.2425 -86.2823 -94.8723 -40.4573 -94.8723 15.8645H105.128ZM107.271 13.7177V13.7167H-92.7293V13.7177H107.271ZM26.0825 113.717C-28.0569 113.717 -71.7744 69.8029 -71.7744 15.8635H128.226C128.226 -40.4581 82.5958 -86.2833 26.0825 -86.2833V113.717ZM-71.7744 15.8635C-71.7744 -38.1836 -27.9532 -81.9934 26.0825 -81.9934V118.007C82.4922 118.007 128.226 72.285 128.226 15.8635H-71.7744ZM26.0825 -81.9934C80.1222 -81.9934 123.939 -38.1798 123.939 15.8635H-76.0605C-76.0605 72.2809 -30.331 118.007 26.0825 118.007V-81.9934ZM123.939 15.8635C123.939 69.8029 80.2219 113.717 26.0825 113.717V-86.2833C-30.4308 -86.2833 -76.0605 -40.4582 -76.0605 15.8635H123.939Z" fill="#80233A" mask="url(#path-2-inside-1_466_790)"/>
</svg>
