<svg width="18" height="20" viewBox="0 0 18 20" fill="none" xmlns="http://www.w3.org/2000/svg">
<path d="M9 1.25C9.85248 1.25 10.67 1.57924 11.2728 2.16529C11.8756 2.75134 12.2143 3.5462 12.2143 4.375V5H5.78571V4.375C5.78571 3.5462 6.12436 2.75134 6.72716 2.16529C7.32995 1.57924 8.14752 1.25 9 1.25ZM13.5 5V4.375C13.5 3.21468 13.0259 2.10188 12.182 1.28141C11.3381 0.460936 10.1935 0 9 0C7.80653 0 6.66193 0.460936 5.81802 1.28141C4.97411 2.10188 4.5 3.21468 4.5 4.375V5H0V17.5C0 18.163 0.270918 18.7989 0.753154 19.2678C1.23539 19.7366 1.88944 20 2.57143 20H15.4286C16.1106 20 16.7646 19.7366 17.2468 19.2678C17.7291 18.7989 18 18.163 18 17.5V5H13.5ZM1.28571 6.25H16.7143V17.5C16.7143 17.8315 16.5788 18.1495 16.3377 18.3839C16.0966 18.6183 15.7696 18.75 15.4286 18.75H2.57143C2.23044 18.75 1.90341 18.6183 1.66229 18.3839C1.42117 18.1495 1.28571 17.8315 1.28571 17.5V6.25Z" fill="#80233A"/>
</svg>
