<svg width="39" height="42" viewBox="0 0 39 42" fill="none" xmlns="http://www.w3.org/2000/svg">
<path d="M36.931 8.00565C35.5895 6.24495 33.6425 5.09191 31.4522 4.75081C30.4977 4.60302 29.5367 4.60897 28.5756 4.77339C26.4415 1.88227 23.1217 0.138611 19.5899 0.138611C16.0642 0.138611 12.7444 1.88227 10.6042 4.77339C9.6431 4.60857 8.68247 4.60302 7.72753 4.75081C5.53729 5.09155 3.5903 6.25043 2.24881 8.00565C0.613931 10.1412 0.0150034 12.9701 0.595212 15.7645C1.45008 19.8657 4.64497 22.9893 8.38307 23.8131C8.37697 23.8416 8.37044 23.8757 8.37044 23.9098V38.0925C8.37044 38.1607 8.38307 38.2288 8.41397 38.2855C8.38916 38.3762 8.37044 38.4673 8.37044 38.5636C8.37044 39.4666 9.57488 40.1424 12.0585 40.6369C14.18 41.0628 17.0006 41.2958 19.9834 41.2958C22.9724 41.2958 25.7864 41.0628 27.9083 40.6369C30.392 40.1428 31.5964 39.4609 31.5964 38.5636C31.5964 38.4669 31.5838 38.3762 31.5529 38.2855C31.5777 38.2229 31.5964 38.1607 31.5964 38.0925L31.5955 23.9098C31.5955 23.8075 31.5581 23.7053 31.5019 23.6257C34.9215 22.5805 37.7732 19.5987 38.572 15.7646C39.1648 12.9701 38.5593 10.1413 36.931 8.00568L36.931 8.00565ZM27.4709 39.6433C25.449 40.024 22.7909 40.2395 19.989 40.2395C17.1871 40.2395 14.529 40.0296 12.5071 39.6433C10.2359 39.2114 9.59307 38.7173 9.53691 38.5695C9.59306 38.4217 10.2359 37.9221 12.5071 37.4958C14.529 37.1151 17.1871 36.8995 19.989 36.8995C22.7909 36.8995 25.449 37.1095 27.4709 37.4958C29.7421 37.9277 30.385 38.4217 30.4411 38.5695C30.385 38.7173 29.7425 39.2114 27.4709 39.6433ZM30.4411 23.9097V37.2516C29.8357 36.9619 28.9995 36.7119 27.9139 36.496C25.7924 36.0701 22.9719 35.8371 19.989 35.8371C17.0001 35.8371 14.186 36.0701 12.0641 36.496C10.9846 36.7119 10.1424 36.9619 9.53691 37.2516L9.53734 23.9949C9.80546 24.0174 10.074 24.0345 10.3422 24.0345C10.7913 24.0345 11.2471 24.0004 11.7024 23.9322C12.7505 23.7674 13.7428 23.4211 14.6479 22.8986C16.1643 23.6653 17.8489 24.0856 19.5838 24.0856C21.3249 24.0856 23.0033 23.6708 24.5198 22.8986C25.4247 23.4212 26.4166 23.7675 27.4653 23.9322C27.921 24.0004 28.3763 24.0345 28.8255 24.0345C29.3683 24.0345 29.9049 23.9834 30.4355 23.8867C30.4477 23.8926 30.4412 23.9037 30.4412 23.9097L30.4411 23.9097ZM37.4363 15.5655C36.4565 20.2855 32.0699 23.563 27.6706 22.8815C26.9528 22.7678 26.2729 22.5578 25.6301 22.2511C25.6549 22.2341 25.6736 22.217 25.6989 22.2055C25.7676 22.16 25.836 22.1148 25.9048 22.0637C25.9483 22.0296 25.9922 22.0011 26.0419 21.967C26.0919 21.933 26.1415 21.8933 26.1916 21.8533C26.2477 21.8078 26.3039 21.7681 26.36 21.7226C26.3975 21.694 26.4288 21.6715 26.4597 21.6429C26.5285 21.5863 26.5968 21.5352 26.6595 21.4781C26.6782 21.4611 26.6969 21.444 26.7157 21.427C26.7966 21.3589 26.8715 21.2907 26.9464 21.2226L26.9524 21.217C27.6515 20.5922 28.2691 19.8822 28.8058 19.0926C28.8246 19.07 28.8372 19.0415 28.8559 19.0189C28.8994 18.9563 28.9434 18.8881 28.9808 18.826C28.9995 18.7974 29.0183 18.7633 29.0431 18.7352C29.0431 18.7297 29.0492 18.7297 29.0492 18.7237C29.2864 18.3489 29.4983 17.9626 29.6981 17.5593C29.8292 17.2923 29.6981 16.9801 29.3987 16.8608C29.1053 16.7416 28.7623 16.8608 28.6313 17.1334C27.7264 18.9908 26.3039 20.5641 24.6064 21.5979C24.5629 21.6205 24.5254 21.649 24.4815 21.6716C24.4253 21.7057 24.3692 21.7397 24.313 21.7683C22.8714 22.5749 21.2553 23.0179 19.5769 23.0179C17.8984 23.0179 16.2758 22.5749 14.8407 21.7683C14.7845 21.7397 14.7345 21.7057 14.6783 21.6716C14.6348 21.6431 14.5909 21.6205 14.5473 21.5919C12.8503 20.5583 11.4273 18.9849 10.5224 17.1275C10.3914 16.8604 10.048 16.7412 9.75504 16.8549C9.46167 16.9741 9.33066 17.2867 9.45558 17.5534C9.64884 17.9567 9.86734 18.343 10.1046 18.7178C10.1046 18.7233 10.1046 18.7233 10.1107 18.7293C10.1294 18.7578 10.1481 18.7919 10.1668 18.82C10.2103 18.8882 10.2543 18.9508 10.2978 19.013C10.3165 19.0355 10.3292 19.0641 10.3479 19.0866C10.8846 19.8763 11.5083 20.5863 12.2074 21.2166C12.2884 21.2848 12.3632 21.353 12.4446 21.4211C12.4633 21.4381 12.4821 21.4496 12.4947 21.4667C12.5634 21.5233 12.6318 21.5804 12.7006 21.637C12.7319 21.6655 12.7628 21.6881 12.8002 21.7167C12.8564 21.7622 12.9186 21.8074 12.9748 21.853C13.0248 21.887 13.0684 21.9267 13.1184 21.9607C13.1685 21.9948 13.212 22.0289 13.2621 22.0629C13.3308 22.1085 13.3931 22.1537 13.4619 22.1992C13.4867 22.2163 13.5119 22.2333 13.5367 22.2504C12.8938 22.557 12.214 22.7674 11.4962 22.8807C7.09704 23.5622 2.71032 20.2848 1.73053 15.5648C1.20647 13.0484 1.74315 10.5152 3.19693 8.60657C4.35735 7.08433 6.03613 6.08475 7.91437 5.78919C8.58207 5.68697 9.26243 5.66993 9.94226 5.74957C9.86739 5.86883 9.79862 5.99363 9.73029 6.11328C9.58665 6.37438 9.70548 6.69253 9.99232 6.82328C10.2792 6.95403 10.6287 6.84587 10.7723 6.58476C12.6004 3.25628 15.9764 1.18886 19.577 1.18886C23.1776 1.18886 26.5534 3.25628 28.3816 6.58476C28.4813 6.77217 28.6872 6.87994 28.9057 6.87994C28.9932 6.87994 29.0802 6.8629 29.1677 6.82328C29.4545 6.69253 29.5734 6.37438 29.4297 6.11328C29.361 5.98848 29.2926 5.86923 29.2178 5.74957C29.8981 5.67588 30.5718 5.68697 31.2456 5.78919C33.1238 6.07882 34.8027 7.08443 35.9631 8.60657C37.4304 10.5163 37.9606 13.0551 37.4365 15.5655L37.4363 15.5655Z" fill="#80233A"/>
</svg>
