<svg width="41" height="42" viewBox="0 0 41 42" fill="none" xmlns="http://www.w3.org/2000/svg">
<path d="M35.814 9.26241C30.5327 6.07119 25.1503 7.64753 22.762 8.65303C23.1044 5.54807 21.5911 3.62862 20.154 2.52771V2.52807C18.7669 1.48018 17.0857 0.895458 15.3479 0.856272C10.667 0.696669 6.98424 1.94697 4.38609 4.55496C0.236216 8.71905 0.410973 14.8129 0.418958 15.0413V39.823C0.420409 40.1538 0.553165 40.4705 0.787852 40.7034C1.02289 40.9359 1.34064 41.0657 1.67108 41.0643H1.70554C2.72121 41.0258 26.7807 40.0486 37.4741 34.3804H37.4745C38.4923 33.8345 39.3421 33.0213 39.9316 32.0282C40.5214 31.0351 40.8289 29.8997 40.821 28.7448V17.2194C40.9135 13.882 38.5166 10.9 35.8139 9.26265L35.814 9.26241ZM5.36425 5.51692C7.55401 3.32429 10.6567 2.21399 14.5952 2.21399C14.8277 2.21399 15.0645 2.21399 15.3061 2.22632C16.7574 2.26296 18.1615 2.74828 19.3251 3.61556C21.2294 5.06896 21.8499 7.10931 21.1807 9.68099C21.1111 9.94759 21.2087 10.2302 21.4277 10.3974C21.6468 10.5646 21.945 10.5842 22.184 10.4467C22.25 10.409 28.8872 6.68384 35.1069 10.4394C37.6725 11.9893 40.0835 15.1113 39.3004 18.3167C38.3805 22.0941 32.3618 28.7343 2.3943 30.715L1.78492 30.7505V15.0177C1.78492 14.963 1.63258 9.25113 5.36392 5.51753L5.36425 5.51692ZM39.453 28.7479C39.4603 29.6544 39.2202 30.5459 38.7584 31.3258C38.2967 32.106 37.631 32.7455 36.8327 33.175C26.8032 38.4958 3.7041 39.6111 1.79403 39.6942V32.126L2.48466 32.0854C27.0101 30.4603 36.3441 25.6869 39.4585 21.2006L39.453 28.7479Z" fill="#80233A"/>
<path d="M8.24014 28.8401C8.49839 28.8405 8.73453 28.6954 8.85096 28.4647C8.9674 28.2344 8.94418 27.958 8.79075 27.7505C4.93142 22.5189 5.44827 21.7177 5.47185 21.6861C5.87085 21.1569 9.57502 22.532 11.5656 23.2704C13.9698 24.162 16.4558 25.0855 18.5662 25.4275C19.654 25.6041 20.8187 25.6734 21.2231 24.8537C21.7676 23.7506 20.37 22.3632 17.1555 19.3287C14.4054 16.7326 10.9826 13.5011 10.3632 11.2037C10.2972 10.9577 10.2137 10.5232 10.4009 10.3759C11.2936 9.67115 15.9626 10.8319 26.1746 16.416C29.6407 18.3123 34.7667 18.1244 34.9829 18.1171H34.9825C35.3594 18.1012 35.6525 17.7831 35.6376 17.4062C35.6333 17.2238 35.5553 17.0511 35.4211 16.9274C35.2872 16.8037 35.1088 16.7399 34.9267 16.75C34.8788 16.75 29.9676 16.9318 26.83 15.2164C17.1227 9.9087 11.3099 7.92025 9.55393 9.3015C9.13136 9.63376 8.69972 10.2946 9.04104 11.5602C9.76105 14.2363 13.1909 17.474 16.2154 20.3301C17.613 21.6504 19.4755 23.4074 19.8847 24.172H19.8851C19.5162 24.1814 19.1477 24.1517 18.7853 24.0828C16.807 23.7618 14.3837 22.864 12.0415 21.9935C8.1822 20.5603 5.39212 19.5244 4.38081 20.8691C3.66262 21.8209 3.95135 23.4944 7.69071 28.5675L7.69034 28.5679C7.82019 28.7405 8.02405 28.8414 8.23987 28.8399L8.24014 28.8401Z" fill="#80233A"/>
</svg>
