<svg width="17" height="19" viewBox="0 0 17 19" fill="none" xmlns="http://www.w3.org/2000/svg">
<path d="M11.0219 10.3818C12.7889 9.466 13.9998 7.62294 13.9998 5.49993C13.9998 2.46803 11.5329 0 8.49983 0C5.4668 0 2.99983 2.46803 2.99983 5.49993C2.99983 7.62288 4.21074 9.46594 5.97771 10.3818C2.5188 11.4588 0 14.6909 0 18.5V19H17V18.5C17 14.6911 14.481 11.4589 11.0223 10.3818H11.0219ZM3.99966 5.49993C3.99966 3.01893 6.01863 0.999988 8.49966 0.999988C10.9807 0.999988 12.9997 3.01893 12.9997 5.49993C12.9997 7.98093 10.9807 9.99988 8.49966 9.99988C6.01863 9.99988 3.99966 7.98093 3.99966 5.49993ZM1.01663 17.9998C1.27466 14.0969 4.53269 10.9999 8.49949 10.9999C12.4663 10.9999 15.7246 14.0969 15.9823 17.9998H1.01663Z" fill="#80233A"/>
</svg>
