<svg width="27" height="27" viewBox="0 0 27 27" fill="none" xmlns="http://www.w3.org/2000/svg">
<path d="M13.4989 8.29907C12.1192 8.29907 10.7961 8.84714 9.82051 9.8227C8.84494 10.7983 8.29688 12.1214 8.29688 13.5011C8.29688 14.8807 8.84494 16.2039 9.82051 17.1794C10.7961 18.155 12.1192 18.7031 13.4989 18.7031C14.8785 18.7031 16.2017 18.155 17.1772 17.1794C18.1528 16.2039 18.7009 14.8807 18.7009 13.5011C18.7009 12.1214 18.1528 10.7983 17.1772 9.8227C16.2017 8.84714 14.8785 8.29907 13.4989 8.29907ZM13.4989 16.8794C12.6026 16.8794 11.743 16.5234 11.1092 15.8896C10.4754 15.2558 10.1194 14.3962 10.1194 13.4999C10.1194 12.6036 10.4754 11.7441 11.1092 11.1103C11.743 10.4765 12.6026 10.1204 13.4989 10.1204C14.3952 10.1204 15.2548 10.4765 15.8885 11.1103C16.5223 11.7441 16.8784 12.6036 16.8784 13.4999C16.8784 14.3962 16.5223 15.2558 15.8885 15.8896C15.2548 16.5234 14.3952 16.8794 13.4989 16.8794Z" fill="black"/>
<path d="M18.9071 9.32052C19.5769 9.32052 20.1198 8.77755 20.1198 8.10777C20.1198 7.43799 19.5769 6.89502 18.9071 6.89502C18.2373 6.89502 17.6943 7.43799 17.6943 8.10777C17.6943 8.77755 18.2373 9.32052 18.9071 9.32052Z" fill="black"/>
<path d="M23.0993 6.87487C22.8389 6.20232 22.4409 5.59156 21.9308 5.08168C21.4208 4.5718 20.8098 4.17405 20.1372 3.91387C19.3501 3.61839 18.5185 3.45862 17.678 3.44137C16.5946 3.39412 16.2515 3.38062 13.5042 3.38062C10.757 3.38062 10.4048 3.38062 9.33045 3.44137C8.49052 3.45774 7.65955 3.61754 6.87345 3.91387C6.20063 4.17374 5.58956 4.57139 5.07945 5.08131C4.56934 5.59122 4.17146 6.20214 3.91133 6.87487C3.6158 7.66193 3.45639 8.49356 3.43995 9.33412C3.39158 10.4164 3.37695 10.7595 3.37695 13.5079C3.37695 16.2551 3.37695 16.605 3.43995 17.6816C3.45683 18.5231 3.61545 19.3534 3.91133 20.142C4.17219 20.8145 4.57046 21.4251 5.08069 21.935C5.59093 22.4448 6.2019 22.8426 6.87458 23.103C7.65919 23.4103 8.4905 23.5815 9.3327 23.6092C10.4161 23.6565 10.7592 23.6711 13.5065 23.6711C16.2537 23.6711 16.6058 23.6711 17.6802 23.6092C18.5207 23.5921 19.3522 23.4328 20.1395 23.1379C20.8119 22.8771 21.4227 22.479 21.9327 21.969C22.4427 21.4589 22.8408 20.8482 23.1016 20.1757C23.3975 19.3882 23.5561 18.558 23.573 17.7165C23.6213 16.6342 23.636 16.2911 23.636 13.5427C23.636 10.7944 23.636 10.4456 23.573 9.36899C23.5599 8.51655 23.3996 7.67277 23.0993 6.87487ZM21.7291 17.5984C21.7218 18.2467 21.6035 18.889 21.3792 19.4974C21.2103 19.9348 20.9516 20.3321 20.6199 20.6636C20.2882 20.9951 19.8908 21.2535 19.4532 21.4222C18.8516 21.6455 18.2161 21.7638 17.5745 21.7721C16.5057 21.8216 16.2042 21.834 13.4637 21.834C10.721 21.834 10.4408 21.834 9.35183 21.7721C8.7105 21.7643 8.07532 21.6459 7.4742 21.4222C7.0351 21.2546 6.63608 20.9966 6.30295 20.6651C5.96983 20.3335 5.71002 19.9357 5.54033 19.4974C5.31921 18.8955 5.20093 18.2608 5.19045 17.6197C5.14208 16.551 5.13083 16.2495 5.13083 13.509C5.13083 10.7674 5.13083 10.4872 5.19045 9.39711C5.19772 8.74914 5.31607 8.10721 5.54033 7.49924C5.88345 6.61161 6.58658 5.91299 7.4742 5.57324C8.07562 5.35065 8.71061 5.23232 9.35183 5.22337C10.4217 5.17499 10.7221 5.16149 13.4637 5.16149C16.2053 5.16149 16.4866 5.16149 17.5745 5.22337C18.2162 5.23108 18.8517 5.34945 19.4532 5.57324C19.8907 5.7423 20.2881 6.00097 20.6198 6.33265C20.9515 6.66433 21.2101 7.0617 21.3792 7.49924C21.6003 8.10106 21.7186 8.7358 21.7291 9.37687C21.7775 10.4467 21.7898 10.7471 21.7898 13.4887C21.7898 16.2292 21.7898 16.524 21.7415 17.5995H21.7291V17.5984Z" fill="black"/>
</svg>
