<svg width="18" height="19" viewBox="0 0 18 19" fill="none" xmlns="http://www.w3.org/2000/svg">
<path d="M17.8218 17.9226L12.9165 12.8325C15.4917 10.0284 15.6348 5.62261 13.1229 2.64723C11.7035 0.965004 9.64086 0 7.46386 0C5.67651 0.000115964 3.94596 0.656685 2.59098 1.84879C-0.529088 4.59293 -0.881165 9.41532 1.80638 12.5986C3.22711 14.2814 5.29064 15.2466 7.46795 15.2466C9.10623 15.2466 10.6938 14.6889 11.9921 13.6782C11.9931 13.6794 11.9934 13.681 11.9947 13.6822L16.9371 18.8107C17.0583 18.9369 17.2189 19 17.3794 19C17.5364 19 17.694 18.9394 17.8145 18.8182C18.0588 18.5726 18.0624 18.1718 17.8218 17.9226ZM7.46795 13.9799C5.71786 13.9799 3.97869 13.2312 2.74657 11.7718C0.501693 9.11277 0.794384 5.10099 3.40118 2.80823C4.57725 1.77365 6.02404 1.26679 7.46356 1.26667C9.21288 1.2666 10.9516 2.01494 12.1827 3.47408C14.4283 6.13383 14.1362 10.1463 11.5311 12.4384C10.3543 13.4731 8.90747 13.9799 7.46795 13.9799Z" fill="black"/>
</svg>
