<svg width="24" height="24" viewBox="0 0 24 24" fill="none" xmlns="http://www.w3.org/2000/svg">
<path d="M21.282 4.4197L21.2499 4.39964L17.1909 2.3999L12.8098 8.24132L14.8254 10.929C14.7651 11.9426 14.3353 12.8989 13.6173 13.6169C12.8993 14.3348 11.943 14.7647 10.9294 14.825L8.24177 12.8093L2.40039 17.1903L4.38348 21.2154L4.40017 21.2494L4.42028 21.2815C4.52611 21.452 4.67382 21.5926 4.84935 21.6899C5.02488 21.7872 5.22239 21.8379 5.42308 21.8373H6.47045C8.48852 21.8373 10.4868 21.4398 12.3513 20.6675C14.2157 19.8952 15.9098 18.7633 17.3368 17.3363C18.7638 15.9093 19.8957 14.2152 20.668 12.3507C21.4403 10.4863 21.8378 8.48799 21.8378 6.46992V5.4225C21.8384 5.22181 21.7877 5.0243 21.6904 4.84877C21.5931 4.67324 21.4525 4.52553 21.282 4.4197ZM20.3378 6.46992C20.3378 14.1164 14.1169 20.3373 6.47045 20.3373H5.62295L4.29611 17.6437L8.24205 14.6842L10.4389 16.3319H10.6889C12.1852 16.3302 13.6198 15.735 14.6778 14.677C15.7359 13.6189 16.331 12.1844 16.3327 10.6881V10.4381L14.6851 8.24128L17.6442 4.29557L20.3378 5.62265V6.46992Z" fill="black"/>
</svg>
